<svg viewBox="0 0 1024 1024" version="1.1" xmlns="http://www.w3.org/2000/svg" width="1024" height="1024"><path d="M400.495534 161.33256l303.660364 16.005568-82.106484 209.230484 160.530797 51.639485L339.739705 960.096509l22.300894-497.657349 38.454935-301.1066z" fill="#56E5BE"/><path d="M439.247419 247.833894l277.202181 11.848277-78.840042 215.674284 160.530797 51.639485L381.965897 968.886208l18.826586-419.945714 38.454936-301.1066z" fill="#50DDB8"/><path d="M727.763369 515.177358l64.734949 33.881916L441.623014 916.415265l13.451803-299.651548 38.425241-301.106601 153.225844 8.047327-46.799211 149.632757 127.836678 41.840158z" fill="#42D3AD"/><path d="M338.106484 1024a54.638673 54.638673 0 0 1-25.65642-6.473495 53.985385 53.985385 0 0 1-27.735066-59.033523l73.316785-355.121679-126.975525-18.885976A54.401114 54.401114 0 0 1 185.474539 521.264818L269.00638 44.98782A54.549588 54.549588 0 0 1 324.83285 0.17817l462.201601 17.816958a54.430808 54.430808 0 0 1 45.581719 80.473263l-197.382206 360.823107 140.961837 12.056141a54.401114 54.401114 0 0 1 34.26795 92.232456l-433.545992 443.939218a54.133859 54.133859 0 0 1-38.811275 16.480687z m5.137223-53.450876z m-97.993272-444.384642l127.094305 18.915671a54.430808 54.430808 0 0 1 45.255074 64.824034L346.955574 952.613386l412.75954-422.677648-137.873564-11.877972a54.401114 54.401114 0 0 1-43.087345-80.176314l197.441596-360.496462-448.987357-17.460619z" fill="#2E3138"/></svg>